<svg width="800" height="800" viewBox="0 0 800 800" fill="none" xmlns="http://www.w3.org/2000/svg">
<g clip-path="url(#clip0_44_9)">
<path d="M768.05 614.475C753.425 647.35 715.7 677.125 680.275 683.7C676.65 684.375 590.075 700 400.25 700H399.75C209.95 700 123.3 684.375 119.7 683.725C84.275 677.125 46.525 647.35 31.875 614.45C30.575 611.525 0.0250244 541.175 0.0250244 400C0.0250244 258.825 30.575 188.45 31.875 185.525C46.525 152.625 84.275 122.875 119.7 116.3C123.3 115.625 209.95 100 399.75 100C590.075 100 676.65 115.625 680.25 116.275C715.7 122.875 753.425 152.625 768.075 185.5C769.375 188.45 800 258.825 800 400C800 541.175 769.375 611.525 768.05 614.475ZM722.325 205.75C714.525 188.225 690.075 168.975 671.125 165.45C670.325 165.3 584.65 150 400.25 150C215.375 150 129.625 165.3 128.8 165.45C109.85 168.975 85.425 188.225 77.6 205.85C77.35 206.375 50.05 270.725 50.05 400C50.05 529.25 77.35 593.6 77.65 594.25C85.425 611.775 109.85 631.025 128.825 634.55C129.625 634.7 215.375 650 399.75 650H400.25C584.65 650 670.325 634.7 671.15 634.55C690.1 631.025 714.525 611.775 722.35 594.15C722.6 593.6 749.95 529.25 749.95 400C749.95 270.75 722.6 206.375 722.325 205.75ZM338.525 546.15C334.475 548.725 329.825 550 325.2 550C321.05 550 316.9 548.975 313.125 546.875C305.15 542.475 300.2 534.1 300.2 525V275C300.2 265.925 305.1 257.575 313.025 253.175C320.95 248.75 330.675 248.95 338.35 253.725L538.825 377.625C546.15 382.15 550.65 390.15 550.675 398.775C550.7 407.4 546.3 415.45 539 420.025L338.525 546.15ZM350.225 319.85V479.725L478.425 399.075L350.225 319.85Z" fill="#FF0000"/>
</g>
<defs>
<clipPath id="clip0_44_9">
<rect width="800" height="800" fill="white"/>
</clipPath>
</defs>
</svg>
